<mxfile host="app.diagrams.net" agent="Mozilla/5.0 (X11; Ubuntu; Linux x86_64; rv:130.0) Gecko/20100101 Firefox/130.0" version="24.7.17">
  <diagram name="Página-1" id="9Qg-gtTe4wT4BjKvXliQ">
    <mxGraphModel dx="1364" dy="915" grid="1" gridSize="10" guides="1" tooltips="1" connect="1" arrows="1" fold="1" page="1" pageScale="1" pageWidth="827" pageHeight="1169" math="0" shadow="0">
      <root>
        <mxCell id="0" />
        <mxCell id="1" parent="0" />
        <mxCell id="lxcgPsbi2j1jYiG1O1tc-14" style="rounded=0;orthogonalLoop=1;jettySize=auto;html=1;exitX=1;exitY=0.5;exitDx=0;exitDy=0;entryX=0;entryY=0.5;entryDx=0;entryDy=0;endArrow=none;endFill=0;" edge="1" parent="1" target="lxcgPsbi2j1jYiG1O1tc-13">
          <mxGeometry relative="1" as="geometry">
            <mxPoint x="260" y="500" as="sourcePoint" />
          </mxGeometry>
        </mxCell>
        <mxCell id="lxcgPsbi2j1jYiG1O1tc-20" style="edgeStyle=orthogonalEdgeStyle;rounded=0;orthogonalLoop=1;jettySize=auto;html=1;" edge="1" parent="1" source="lxcgPsbi2j1jYiG1O1tc-1" target="lxcgPsbi2j1jYiG1O1tc-19">
          <mxGeometry relative="1" as="geometry" />
        </mxCell>
        <mxCell id="lxcgPsbi2j1jYiG1O1tc-38" style="edgeStyle=orthogonalEdgeStyle;rounded=0;orthogonalLoop=1;jettySize=auto;html=1;exitX=0.5;exitY=0;exitDx=0;exitDy=0;entryX=0.5;entryY=1;entryDx=0;entryDy=0;" edge="1" parent="1" source="lxcgPsbi2j1jYiG1O1tc-1" target="lxcgPsbi2j1jYiG1O1tc-33">
          <mxGeometry relative="1" as="geometry" />
        </mxCell>
        <mxCell id="lxcgPsbi2j1jYiG1O1tc-1" value="Vivero" style="whiteSpace=wrap;html=1;fillColor=#e1d5e7;strokeColor=#9673a6;" vertex="1" parent="1">
          <mxGeometry x="140" y="270" width="120" height="60" as="geometry" />
        </mxCell>
        <mxCell id="lxcgPsbi2j1jYiG1O1tc-4" value="Productos" style="whiteSpace=wrap;html=1;fillColor=#e1d5e7;strokeColor=#9673a6;" vertex="1" parent="1">
          <mxGeometry x="460" y="470" width="120" height="60" as="geometry" />
        </mxCell>
        <mxCell id="lxcgPsbi2j1jYiG1O1tc-10" value="&lt;div&gt;Exterior&lt;/div&gt;" style="whiteSpace=wrap;html=1;fillColor=#e1d5e7;strokeColor=#9673a6;" vertex="1" parent="1">
          <mxGeometry x="80" y="620" width="60" height="30" as="geometry" />
        </mxCell>
        <mxCell id="lxcgPsbi2j1jYiG1O1tc-11" value="Interior" style="whiteSpace=wrap;html=1;fillColor=#e1d5e7;strokeColor=#9673a6;" vertex="1" parent="1">
          <mxGeometry x="170" y="620" width="60" height="30" as="geometry" />
        </mxCell>
        <mxCell id="lxcgPsbi2j1jYiG1O1tc-12" value="Almacen" style="whiteSpace=wrap;html=1;fillColor=#e1d5e7;strokeColor=#9673a6;" vertex="1" parent="1">
          <mxGeometry x="260" y="620" width="60" height="30" as="geometry" />
        </mxCell>
        <mxCell id="lxcgPsbi2j1jYiG1O1tc-15" style="edgeStyle=orthogonalEdgeStyle;rounded=0;orthogonalLoop=1;jettySize=auto;html=1;exitX=1;exitY=0.5;exitDx=0;exitDy=0;entryX=0;entryY=0.5;entryDx=0;entryDy=0;endArrow=none;endFill=0;" edge="1" parent="1" source="lxcgPsbi2j1jYiG1O1tc-13" target="lxcgPsbi2j1jYiG1O1tc-4">
          <mxGeometry relative="1" as="geometry" />
        </mxCell>
        <mxCell id="lxcgPsbi2j1jYiG1O1tc-13" value="Asignado" style="rhombus;whiteSpace=wrap;html=1;fillColor=#fff2cc;strokeColor=#d6b656;" vertex="1" parent="1">
          <mxGeometry x="320" y="465" width="80" height="70" as="geometry" />
        </mxCell>
        <mxCell id="lxcgPsbi2j1jYiG1O1tc-23" style="edgeStyle=orthogonalEdgeStyle;rounded=0;orthogonalLoop=1;jettySize=auto;html=1;entryX=0;entryY=0.5;entryDx=0;entryDy=0;" edge="1" parent="1" target="lxcgPsbi2j1jYiG1O1tc-22">
          <mxGeometry relative="1" as="geometry">
            <mxPoint x="200" y="530" as="sourcePoint" />
          </mxGeometry>
        </mxCell>
        <mxCell id="lxcgPsbi2j1jYiG1O1tc-21" style="edgeStyle=orthogonalEdgeStyle;rounded=0;orthogonalLoop=1;jettySize=auto;html=1;entryX=0.5;entryY=0;entryDx=0;entryDy=0;" edge="1" parent="1" source="lxcgPsbi2j1jYiG1O1tc-19">
          <mxGeometry relative="1" as="geometry">
            <mxPoint x="200" y="470" as="targetPoint" />
          </mxGeometry>
        </mxCell>
        <mxCell id="lxcgPsbi2j1jYiG1O1tc-19" value="Tiene" style="rhombus;whiteSpace=wrap;html=1;fillColor=#fff2cc;strokeColor=#d6b656;" vertex="1" parent="1">
          <mxGeometry x="167.5" y="370" width="65" height="60" as="geometry" />
        </mxCell>
        <mxCell id="lxcgPsbi2j1jYiG1O1tc-24" style="edgeStyle=orthogonalEdgeStyle;rounded=0;orthogonalLoop=1;jettySize=auto;html=1;exitX=0.5;exitY=0;exitDx=0;exitDy=0;" edge="1" parent="1" source="lxcgPsbi2j1jYiG1O1tc-26">
          <mxGeometry relative="1" as="geometry">
            <mxPoint x="270" y="570" as="targetPoint" />
          </mxGeometry>
        </mxCell>
        <mxCell id="lxcgPsbi2j1jYiG1O1tc-29" style="edgeStyle=orthogonalEdgeStyle;rounded=0;orthogonalLoop=1;jettySize=auto;html=1;exitX=1;exitY=0.5;exitDx=0;exitDy=0;entryX=0.5;entryY=0;entryDx=0;entryDy=0;" edge="1" parent="1" source="lxcgPsbi2j1jYiG1O1tc-22" target="lxcgPsbi2j1jYiG1O1tc-10">
          <mxGeometry relative="1" as="geometry" />
        </mxCell>
        <mxCell id="lxcgPsbi2j1jYiG1O1tc-30" style="edgeStyle=orthogonalEdgeStyle;rounded=0;orthogonalLoop=1;jettySize=auto;html=1;entryX=0.5;entryY=0;entryDx=0;entryDy=0;" edge="1" parent="1" source="lxcgPsbi2j1jYiG1O1tc-22" target="lxcgPsbi2j1jYiG1O1tc-11">
          <mxGeometry relative="1" as="geometry" />
        </mxCell>
        <mxCell id="lxcgPsbi2j1jYiG1O1tc-31" style="edgeStyle=orthogonalEdgeStyle;rounded=0;orthogonalLoop=1;jettySize=auto;html=1;exitX=1;exitY=0.5;exitDx=0;exitDy=0;entryX=0.5;entryY=0;entryDx=0;entryDy=0;" edge="1" parent="1" source="lxcgPsbi2j1jYiG1O1tc-22" target="lxcgPsbi2j1jYiG1O1tc-12">
          <mxGeometry relative="1" as="geometry" />
        </mxCell>
        <mxCell id="lxcgPsbi2j1jYiG1O1tc-22" value="" style="triangle;whiteSpace=wrap;html=1;rotation=90;fillColor=#e1d5e7;strokeColor=#9673a6;" vertex="1" parent="1">
          <mxGeometry x="190" y="530" width="20" height="80" as="geometry" />
        </mxCell>
        <mxCell id="lxcgPsbi2j1jYiG1O1tc-27" value="" style="edgeStyle=orthogonalEdgeStyle;rounded=0;orthogonalLoop=1;jettySize=auto;html=1;exitX=0.5;exitY=0;exitDx=0;exitDy=0;" edge="1" parent="1" source="lxcgPsbi2j1jYiG1O1tc-22" target="lxcgPsbi2j1jYiG1O1tc-26">
          <mxGeometry relative="1" as="geometry">
            <mxPoint x="270" y="570" as="targetPoint" />
            <mxPoint x="220" y="570" as="sourcePoint" />
          </mxGeometry>
        </mxCell>
        <mxCell id="lxcgPsbi2j1jYiG1O1tc-26" value="Tipo" style="ellipse;whiteSpace=wrap;html=1;fillColor=#e1d5e7;strokeColor=#9673a6;" vertex="1" parent="1">
          <mxGeometry x="260" y="555" width="30" height="30" as="geometry" />
        </mxCell>
        <mxCell id="lxcgPsbi2j1jYiG1O1tc-32" value="Zonas" style="shape=process;whiteSpace=wrap;html=1;backgroundOutline=1;fillColor=#e1d5e7;strokeColor=#9673a6;" vertex="1" parent="1">
          <mxGeometry x="140" y="470" width="120" height="60" as="geometry" />
        </mxCell>
        <mxCell id="lxcgPsbi2j1jYiG1O1tc-36" style="edgeStyle=orthogonalEdgeStyle;rounded=0;orthogonalLoop=1;jettySize=auto;html=1;exitX=0.5;exitY=0;exitDx=0;exitDy=0;entryX=0.5;entryY=1;entryDx=0;entryDy=0;" edge="1" parent="1" source="lxcgPsbi2j1jYiG1O1tc-33" target="lxcgPsbi2j1jYiG1O1tc-34">
          <mxGeometry relative="1" as="geometry" />
        </mxCell>
        <mxCell id="lxcgPsbi2j1jYiG1O1tc-37" style="edgeStyle=orthogonalEdgeStyle;rounded=0;orthogonalLoop=1;jettySize=auto;html=1;entryX=0.5;entryY=1;entryDx=0;entryDy=0;" edge="1" parent="1" source="lxcgPsbi2j1jYiG1O1tc-33" target="lxcgPsbi2j1jYiG1O1tc-35">
          <mxGeometry relative="1" as="geometry" />
        </mxCell>
        <mxCell id="lxcgPsbi2j1jYiG1O1tc-33" value="&lt;div&gt;Georreferen-&lt;/div&gt;&lt;div&gt;ciación&lt;/div&gt;" style="ellipse;whiteSpace=wrap;html=1;fillColor=#e1d5e7;strokeColor=#9673a6;" vertex="1" parent="1">
          <mxGeometry x="130" y="170" width="80" height="80" as="geometry" />
        </mxCell>
        <mxCell id="lxcgPsbi2j1jYiG1O1tc-34" value="Latitud" style="ellipse;whiteSpace=wrap;html=1;fillColor=#e1d5e7;strokeColor=#9673a6;" vertex="1" parent="1">
          <mxGeometry x="70" y="70" width="55" height="55" as="geometry" />
        </mxCell>
        <mxCell id="lxcgPsbi2j1jYiG1O1tc-35" value="Longitud" style="ellipse;whiteSpace=wrap;html=1;fillColor=#e1d5e7;strokeColor=#9673a6;" vertex="1" parent="1">
          <mxGeometry x="200" y="65" width="60" height="60" as="geometry" />
        </mxCell>
      </root>
    </mxGraphModel>
  </diagram>
</mxfile>
